<?xml version="1.0" encoding="UTF-8"?>
<svg id="Layer_1" data-name="Layer 1" xmlns="http://www.w3.org/2000/svg" viewBox="0 0 2773.59 657.24">
  <defs>
    <style>
      .cls-1 {
        fill: #fff;
      }
    </style>
  </defs>
  <g>
    <polygon class="cls-1" points="435.9 504.17 100 76.06 324.35 76.06 509.81 312.36 586.44 312.36 381.32 50.85 298.15 7.03 34.27 7.03 15.04 65.6 359.26 504.17 435.9 504.17"/>
    <polygon class="cls-1" points="222.63 138.27 558.85 566.65 334.5 566.65 148.94 330.36 72.41 330.36 288.79 606.19 359.57 635.03 624.61 635.68 643.69 577.09 299.27 138.27 222.63 138.27"/>
  </g>
  <path class="cls-1" d="M1531.98,526.12c-19.48,12.56-42.98,18.85-70.51,18.85-37.71,0-67.8-11.68-90.24-35.02-22.46-23.34-33.68-55.98-33.68-97.88s11.22-74.56,33.68-97.9c22.44-23.34,52.54-35.02,90.24-35.02,26.95,0,50.13,5.99,69.61,17.95,19.46,11.98,33.96,29.06,43.56,51.19h112.24c-11.98-51.47-37.71-92.35-77.22-122.58-39.51-30.21-88.62-45.34-147.29-45.34-34.72,0-66.46,5.53-95.19,16.61-28.73,11.08-53.3,26.65-73.63,46.71-20.38,20.06-36.09,44.3-47.15,72.73-11.1,28.45-16.63,60.03-16.63,94.75s5.53,66.44,16.63,95.19c11.06,28.73,26.76,53.3,47.15,73.63,20.33,20.36,44.9,36.09,73.63,47.15,28.73,11.08,60.47,16.61,95.19,16.61,59.27,0,108.66-15.27,148.17-45.78,39.54-30.54,65.26-72.15,77.24-124.85h-112.27c-9.58,22.76-24.11,40.41-43.54,53Z"/>
  <path class="cls-1" d="M2158.18,244.13c-20.38-20.36-44.92-36.06-73.66-47.15-28.73-11.08-60.47-16.61-95.19-16.61s-66.32,5.53-94.73,16.61c-28.45,11.08-52.86,26.65-73.19,46.71-20.38,20.06-36.09,44.3-47.15,72.73-11.11,28.45-16.63,60.03-16.63,94.75s5.53,66.44,16.63,95.19c11.06,28.73,26.49,53.3,46.24,73.63,19.76,20.36,43.4,36.09,70.95,47.15,27.53,11.08,57.47,16.61,89.8,16.61s60.61-5.09,83.07-15.27c22.44-10.16,39.05-22.14,49.83-35.9v43.1h107.78v-222.73c0-34.7-5.55-66.44-16.61-95.19-11.1-28.73-26.81-53.28-47.15-73.63ZM2080.5,509.95c-22.46,23.34-52.56,35.02-90.27,35.02s-67.97-11.68-90.7-35.02c-22.76-23.34-34.12-55.98-34.12-97.88s11.36-74.56,34.12-97.9c22.74-23.34,52.98-35.02,90.7-35.02s67.8,11.68,90.27,35.02c22.44,23.34,33.66,55.98,33.66,97.9s-11.22,74.54-33.66,97.88Z"/>
  <rect class="cls-1" x="2323.19" y="7.03" width="107.75" height="628.65"/>
  <path class="cls-1" d="M2758.54,285.44v-98.8h-117.66V7.03h-107.78v422.09c0,69.47,19.02,122.28,57.05,158.51,38.01,36.23,94.13,54.34,168.39,54.34v-98.8c-42.52,0-72.75-8.81-90.7-26.49-17.97-17.65-26.95-47.15-26.95-88.46v-142.78h117.66Z"/>
  <path class="cls-1" d="M1091.03,394.71c-18.6-10.66-38.56-18.88-59.88-24.68-21.34-5.79-41.29-11.27-59.88-16.45-18.6-5.18-33.97-10.82-46.16-16.92-12.2-6.09-18.29-14.62-18.29-25.59,0-9.14,4.72-16.45,14.17-21.94,9.44-5.48,22.99-8.22,40.67-8.22,18.89,0,39.76,3.96,62.62,11.87,22.86,7.93,46.46,21.94,70.84,42.05l58.5-85c-9.75-8.53-21.02-16.91-33.83-25.14-12.8-8.22-26.95-15.54-42.5-21.94-15.54-6.4-32.77-11.73-51.65-15.99-18.89-4.26-39.62-6.4-62.15-6.4-51.8,0-92.48,11.58-122.04,34.73-29.57,23.17-44.34,55.75-44.34,97.8,0,28.04,6.09,50.44,18.29,67.19,12.19,16.76,27.56,30.31,46.16,40.67,18.58,10.38,38.53,18.43,59.88,24.22,21.31,5.8,41.28,11.28,59.86,16.46,18.58,5.18,33.98,11.28,46.16,18.27,12.19,7.02,18.29,17.23,18.29,30.62s-6.25,23.32-18.73,29.72c-12.5,6.4-28.2,9.59-47.08,9.59-22.55,0-45.24-4.57-68.1-13.7-22.84-9.14-44.02-22.86-63.53-41.14l-58.5,85.92c7.3,6.1,16.6,13.25,27.87,21.48,11.27,8.24,24.68,15.85,40.23,22.86,15.54,7.01,33.2,12.96,53.02,17.83,19.79,4.87,41.89,7.32,66.26,7.32,26.2,0,50.12-3.06,71.77-9.14,21.63-6.09,40.36-15.23,56.21-27.43,15.84-12.19,28.19-27.27,37.02-45.24,8.83-17.97,13.26-38.53,13.26-61.7,0-28.63-6.1-51.79-18.29-69.46-12.19-17.68-27.58-31.84-46.15-42.51Z"/>
</svg>